<svg xmlns="http://www.w3.org/2000/svg" xmlns:xlink="http://www.w3.org/1999/xlink" width="430" zoomAndPan="magnify" viewBox="0 0 322.5 86.249997" height="115" preserveAspectRatio="xMidYMid meet" version="1.0"><defs><g/><clipPath id="fe27d36e6c"><path d="M 1.695312 0.503906 L 81.625 0.503906 L 81.625 72.625 L 1.695312 72.625 Z M 1.695312 0.503906 " clip-rule="nonzero"/></clipPath></defs><g clip-path="url(#fe27d36e6c)"><path fill="#e45700" d="M 73.566406 48.257812 L 71.789062 48.257812 C 71.257812 48.257812 70.875 47.898438 70.699219 47.425781 C 69.085938 43.171875 65.660156 39.863281 61.84375 37.527344 C 53.367188 32.335938 42.472656 31.132812 32.84375 33.136719 C 24.785156 34.816406 15.683594 39.234375 12.578125 47.425781 C 12.398438 47.898438 12.023438 48.257812 11.484375 48.257812 C 10.359375 48.257812 9.199219 48.171875 8.105469 48.480469 C 6.332031 48.984375 4.851562 50.359375 4.234375 52.097656 C 3.050781 55.410156 5.871094 57.824219 8.644531 59.039062 C 8.953125 59.171875 9.269531 59.292969 9.589844 59.410156 C 9.773438 59.417969 9.953125 59.472656 10.109375 59.589844 C 13.515625 60.6875 17.375 60.683594 20.773438 59.742188 C 23.613281 58.957031 27.449219 57.070312 27.550781 53.664062 C 27.59375 52.203125 29.769531 52.207031 29.8125 53.664062 C 29.96875 58.875 37.671875 60.402344 41.636719 60.402344 C 45.601562 60.402344 53.308594 58.875 53.460938 53.664062 C 53.507812 52.203125 55.683594 52.207031 55.726562 53.664062 C 55.8125 56.625 58.820312 58.476562 61.3125 59.367188 C 64.882812 60.648438 68.945312 60.746094 72.601562 59.742188 C 72.796875 59.6875 73.003906 59.628906 73.210938 59.5625 C 73.351562 59.46875 73.507812 59.421875 73.667969 59.410156 C 76.054688 58.578125 78.710938 57.039062 79.277344 54.5 C 80.03125 51.140625 76.621094 48.339844 73.566406 48.257812 Z M 71.714844 62.226562 C 70.570312 62.464844 69.472656 62.605469 68.496094 62.648438 C 64.058594 62.84375 57.253906 61.453125 54.589844 57.324219 C 52.0625 61.203125 45.871094 62.660156 41.636719 62.667969 C 37.378906 62.671875 31.144531 61.183594 28.644531 57.253906 C 27.441406 59.046875 25.472656 60.367188 23.453125 61.207031 C 19.746094 62.75 15.511719 63.019531 11.585938 62.273438 C 12.984375 65.035156 14.382812 67.792969 15.777344 70.554688 L 67.496094 70.554688 C 68.902344 67.78125 70.304688 65 71.714844 62.226562 Z M 74.671875 61.378906 L 69.167969 72.261719 C 68.992188 72.609375 68.570312 72.820312 68.191406 72.820312 L 15.085938 72.820312 C 14.703125 72.820312 14.285156 72.609375 14.105469 72.261719 C 12.289062 68.664062 10.46875 65.070312 8.648438 61.476562 C 6.324219 60.632812 4.144531 59.273438 2.765625 57.238281 C 0.917969 54.5 1.597656 50.988281 3.75 48.625 C 5.664062 46.519531 8.09375 46.066406 10.730469 46.003906 C 12.578125 41.742188 15.898438 38.367188 19.800781 35.875 C 28.859375 30.089844 40.648438 28.796875 51.03125 30.957031 C 59.6875 32.753906 68.882812 37.535156 72.542969 45.996094 L 73.566406 45.996094 C 77.257812 46.097656 80.589844 48.542969 81.433594 52.21875 C 82.507812 56.90625 78.835938 59.855469 74.671875 61.378906 Z M 47.554688 40.445312 C 48.371094 39.355469 49.195312 38.265625 50.015625 37.179688 C 50.382812 36.6875 50.089844 35.910156 49.609375 35.628906 C 49.027344 35.289062 48.429688 35.542969 48.058594 36.035156 C 47.238281 37.125 46.417969 38.214844 45.597656 39.304688 C 45.230469 39.792969 45.515625 40.570312 46.003906 40.851562 C 46.582031 41.191406 47.183594 40.9375 47.554688 40.445312 Z M 41.382812 40.445312 C 42.203125 39.355469 43.023438 38.265625 43.847656 37.179688 C 44.214844 36.6875 43.921875 35.910156 43.441406 35.628906 C 42.859375 35.289062 42.261719 35.542969 41.890625 36.035156 C 41.070312 37.125 40.25 38.214844 39.429688 39.304688 C 39.058594 39.792969 39.347656 40.570312 39.835938 40.851562 C 40.414062 41.191406 41.015625 40.9375 41.382812 40.445312 Z M 35.214844 40.445312 C 36.035156 39.355469 36.855469 38.265625 37.679688 37.179688 C 38.046875 36.6875 37.753906 35.910156 37.273438 35.628906 C 36.691406 35.289062 36.09375 35.542969 35.722656 36.035156 C 34.902344 37.125 34.082031 38.214844 33.257812 39.304688 C 32.890625 39.792969 33.179688 40.570312 33.664062 40.851562 C 34.246094 41.191406 34.847656 40.9375 35.214844 40.445312 Z M 50.636719 0.824219 C 47.941406 3.417969 47.039062 7.605469 49.054688 10.863281 C 49.914062 12.253906 51.289062 13.226562 52.054688 14.675781 C 52.699219 15.882812 52.855469 17.246094 52.542969 18.574219 C 52.234375 19.875 51.554688 21.199219 50.636719 22.179688 C 49.640625 23.242188 51.238281 24.847656 52.238281 23.78125 C 54.785156 21.066406 55.828125 16.910156 54.011719 13.535156 C 52.597656 10.902344 49.539062 9.300781 50.289062 5.878906 C 50.570312 4.601562 51.292969 3.335938 52.238281 2.425781 C 53.292969 1.414062 51.6875 -0.183594 50.636719 0.824219 Z M 40.835938 0.824219 C 38.140625 3.417969 37.238281 7.605469 39.257812 10.863281 C 40.117188 12.253906 41.492188 13.226562 42.257812 14.675781 C 42.898438 15.882812 43.054688 17.246094 42.742188 18.574219 C 42.433594 19.875 41.757812 21.199219 40.835938 22.179688 C 39.839844 23.242188 41.4375 24.847656 42.4375 23.78125 C 44.984375 21.066406 46.027344 16.910156 44.210938 13.535156 C 42.796875 10.902344 39.738281 9.300781 40.492188 5.878906 C 40.769531 4.601562 41.492188 3.335938 42.4375 2.425781 C 43.492188 1.414062 41.886719 -0.183594 40.835938 0.824219 Z M 31.035156 0.824219 C 32.085938 -0.183594 33.691406 1.414062 32.640625 2.425781 C 31.695312 3.335938 30.972656 4.601562 30.691406 5.878906 C 29.9375 9.300781 32.996094 10.902344 34.414062 13.535156 C 36.230469 16.910156 35.1875 21.066406 32.640625 23.78125 C 31.636719 24.847656 30.039062 23.242188 31.035156 22.179688 C 31.957031 21.199219 32.636719 19.875 32.945312 18.574219 C 33.257812 17.246094 33.097656 15.882812 32.457031 14.675781 C 31.691406 13.226562 30.316406 12.253906 29.453125 10.863281 C 27.4375 7.605469 28.339844 3.417969 31.035156 0.824219 " fill-opacity="1" fill-rule="nonzero"/></g><g fill="#e45700" fill-opacity="1"><g transform="translate(91.950715, 64.778491)"><g><path d="M 13.421875 -0.078125 C 14.324219 0.464844 15.332031 0.621094 16.054688 -0.207031 C 16.699219 -0.953125 16.722656 -2.089844 15.925781 -2.710938 C 14.324219 -3.921875 12.386719 -5.265625 10.015625 -7.226562 C 15.847656 -9.445312 19.148438 -12.414062 19.148438 -15.484375 C 19.148438 -18.144531 16.75 -19.976562 13.1875 -19.976562 C 9.085938 -19.976562 4.515625 -18.660156 0.75 -16.441406 C -0.15625 -15.898438 -0.207031 -14.632812 0.492188 -13.832031 C 1.160156 -13.058594 1.882812 -13.109375 3.046875 -13.652344 C 6.066406 -15.070312 9.882812 -16.363281 13.1875 -16.363281 C 14.917969 -16.363281 15.535156 -16.054688 15.535156 -15.460938 C 15.535156 -13.859375 11.898438 -11.511719 7.125 -10.039062 C 6.734375 -9.9375 6.375 -9.808594 6.066406 -9.574219 C 6.140625 -10.402344 6.273438 -11.175781 6.425781 -11.847656 C 6.605469 -12.644531 5.910156 -13.625 5.03125 -13.730469 C 3.84375 -13.859375 3.046875 -13.316406 2.789062 -12.207031 C 2.089844 -9.238281 2.117188 -5.753906 2.425781 -1.445312 C 2.503906 -0.386719 3.433594 0.308594 4.492188 0.128906 C 5.496094 -0.0273438 6.066406 -0.929688 5.988281 -1.988281 C 5.859375 -3.433594 5.832031 -4.957031 5.859375 -6.425781 L 5.988281 -6.296875 C 8.515625 -3.328125 11.40625 -1.265625 13.421875 -0.078125 Z M 13.421875 -0.078125 "/></g></g></g><g fill="#e45700" fill-opacity="1"><g transform="translate(110.583713, 64.778491)"><g><path d="M 7.742188 1.675781 C 11.148438 1.675781 14.21875 0.824219 17.757812 -1.007812 C 18.738281 -1.496094 19.097656 -2.632812 18.609375 -3.511719 C 18.167969 -4.308594 17.265625 -4.4375 16.464844 -4.078125 C 13.34375 -2.605469 10.738281 -1.675781 7.742188 -1.675781 C 5.703125 -1.675781 4.566406 -3.070312 4.257812 -5.832031 C 4.566406 -5.730469 4.929688 -5.703125 5.316406 -5.808594 C 6.554688 -6.140625 7.976562 -6.554688 9.472656 -6.96875 C 11.125 -7.433594 12.878906 -7.949219 14.53125 -8.386719 C 15.484375 -8.644531 16 -9.496094 15.769531 -10.425781 C 15.535156 -11.382812 14.683594 -11.898438 13.703125 -11.640625 C 11.976562 -11.175781 10.195312 -10.683594 8.515625 -10.195312 C 7.046875 -9.753906 5.652344 -9.367188 4.515625 -9.058594 C 4.414062 -9.03125 4.308594 -9.007812 4.234375 -8.957031 C 4.285156 -10.246094 4.4375 -11.691406 4.644531 -13.316406 C 4.957031 -13.238281 5.289062 -13.265625 5.574219 -13.34375 C 6.710938 -13.703125 10.347656 -14.8125 16.800781 -15.792969 C 17.859375 -15.949219 18.503906 -16.722656 18.375 -17.703125 C 18.246094 -18.660156 17.371094 -19.253906 16.3125 -19.097656 C 10.632812 -18.246094 6.425781 -17.1875 4.773438 -16.621094 C 4.566406 -17.007812 4.234375 -17.292969 3.742188 -17.421875 C 2.789062 -17.652344 1.882812 -17.085938 1.675781 -16.054688 C 1.058594 -12.75 0.773438 -9.910156 0.773438 -7.535156 C 0.773438 -1.316406 3.199219 1.675781 7.742188 1.675781 Z M 7.742188 1.675781 "/></g></g></g><g fill="#e45700" fill-opacity="1"><g transform="translate(130.171588, 64.778491)"><g><path d="M 7.355469 1.625 C 10.246094 1.625 13.394531 0.078125 15.382812 -2.863281 C 15.976562 -3.769531 15.640625 -4.828125 14.738281 -5.289062 C 13.910156 -5.730469 13.058594 -5.417969 12.515625 -4.644531 C 11.175781 -2.683594 9.007812 -1.730469 7.382812 -1.730469 C 5.265625 -1.730469 3.871094 -3.5625 3.871094 -6.195312 C 3.871094 -12.078125 8.722656 -15.925781 13.058594 -15.925781 C 13.703125 -15.925781 14.375 -15.769531 15.019531 -15.484375 C 15.949219 -15.097656 16.828125 -15.484375 17.265625 -16.183594 C 17.757812 -16.957031 17.523438 -18.039062 16.542969 -18.480469 C 15.355469 -18.996094 14.167969 -19.253906 12.980469 -19.253906 C 6.789062 -19.253906 0.515625 -13.988281 0.515625 -6.195312 C 0.515625 -1.730469 3.199219 1.625 7.355469 1.625 Z M 7.355469 1.625 "/></g></g></g><g fill="#e45700" fill-opacity="1"><g transform="translate(147.952938, 64.778491)"><g><path d="M 7.742188 1.675781 C 11.148438 1.675781 14.21875 0.824219 17.757812 -1.007812 C 18.738281 -1.496094 19.097656 -2.632812 18.609375 -3.511719 C 18.167969 -4.308594 17.265625 -4.4375 16.464844 -4.078125 C 13.34375 -2.605469 10.738281 -1.675781 7.742188 -1.675781 C 5.703125 -1.675781 4.566406 -3.070312 4.257812 -5.832031 C 4.566406 -5.730469 4.929688 -5.703125 5.316406 -5.808594 C 6.554688 -6.140625 7.976562 -6.554688 9.472656 -6.96875 C 11.125 -7.433594 12.878906 -7.949219 14.53125 -8.386719 C 15.484375 -8.644531 16 -9.496094 15.769531 -10.425781 C 15.535156 -11.382812 14.683594 -11.898438 13.703125 -11.640625 C 11.976562 -11.175781 10.195312 -10.683594 8.515625 -10.195312 C 7.046875 -9.753906 5.652344 -9.367188 4.515625 -9.058594 C 4.414062 -9.03125 4.308594 -9.007812 4.234375 -8.957031 C 4.285156 -10.246094 4.4375 -11.691406 4.644531 -13.316406 C 4.957031 -13.238281 5.289062 -13.265625 5.574219 -13.34375 C 6.710938 -13.703125 10.347656 -14.8125 16.800781 -15.792969 C 17.859375 -15.949219 18.503906 -16.722656 18.375 -17.703125 C 18.246094 -18.660156 17.371094 -19.253906 16.3125 -19.097656 C 10.632812 -18.246094 6.425781 -17.1875 4.773438 -16.621094 C 4.566406 -17.007812 4.234375 -17.292969 3.742188 -17.421875 C 2.789062 -17.652344 1.882812 -17.085938 1.675781 -16.054688 C 1.058594 -12.75 0.773438 -9.910156 0.773438 -7.535156 C 0.773438 -1.316406 3.199219 1.675781 7.742188 1.675781 Z M 7.742188 1.675781 "/></g></g></g><g fill="#e45700" fill-opacity="1"><g transform="translate(167.540813, 64.778491)"><g><path d="M 2.503906 1.289062 C 4.59375 1.238281 6.347656 0.953125 8.515625 0.515625 C 9.652344 0.285156 10.296875 -0.644531 10.039062 -1.601562 C 9.78125 -2.527344 8.929688 -3.019531 7.976562 -2.8125 L 6.425781 -2.503906 C 6.476562 -2.683594 6.503906 -2.890625 6.503906 -3.097656 C 6.402344 -6.8125 6.375 -12 6.890625 -16.183594 L 7.640625 -16.207031 C 8.621094 -16.234375 9.34375 -16.957031 9.34375 -17.910156 C 9.34375 -18.867188 8.621094 -19.589844 7.613281 -19.5625 C 5.859375 -19.511719 4.363281 -19.355469 2.554688 -18.996094 C 1.417969 -18.761719 0.773438 -17.832031 1.03125 -16.878906 C 1.289062 -15.949219 2.140625 -15.460938 3.097656 -15.664062 L 3.175781 -15.691406 C 2.710938 -11.382812 2.683594 -6.503906 2.863281 -2.96875 C 2.890625 -2.632812 2.96875 -2.347656 3.121094 -2.089844 L 2.476562 -2.066406 C 1.496094 -2.039062 0.773438 -1.316406 0.773438 -0.359375 C 0.773438 0.59375 1.496094 1.316406 2.503906 1.289062 Z M 2.503906 1.289062 "/></g></g></g><g fill="#e45700" fill-opacity="1"><g transform="translate(178.40576, 64.778491)"><g><path d="M 8.902344 1.136719 C 9.9375 1.136719 10.710938 0.335938 10.710938 -0.722656 C 10.632812 -5.445312 10.402344 -11.070312 9.910156 -15.277344 C 11.589844 -15.382812 13.214844 -15.382812 14.609375 -15.226562 C 15.613281 -15.097656 16.464844 -15.691406 16.648438 -16.648438 C 16.851562 -17.78125 16.183594 -18.710938 15.070312 -18.816406 C 10.96875 -19.226562 5.316406 -18.554688 1.417969 -17.421875 C 0.464844 -17.136719 0.0273438 -16.15625 0.386719 -15.125 C 0.722656 -14.195312 1.652344 -13.730469 2.632812 -14.015625 C 3.742188 -14.324219 4.980469 -14.609375 6.296875 -14.839844 C 6.761719 -11.097656 7.019531 -5.753906 7.097656 -0.695312 C 7.097656 0.359375 7.871094 1.136719 8.902344 1.136719 Z M 8.902344 1.136719 "/></g></g></g><g fill="#e45700" fill-opacity="1"><g transform="translate(195.335464, 64.778491)"><g><path d="M 15.742188 0.980469 C 16.699219 0.980469 17.421875 0.285156 17.421875 -0.671875 C 17.421875 -6.96875 18.222656 -19.589844 11.664062 -19.589844 C 7.742188 -19.589844 4.542969 -13.445312 2.8125 -6.96875 C 1.214844 -6.863281 0.15625 -6.011719 0.257812 -5.03125 C 0.386719 -4.105469 1.109375 -3.535156 2.039062 -3.5625 C 1.882812 -2.734375 1.753906 -1.910156 1.652344 -1.109375 C 1.523438 -0.0507812 2.324219 0.75 3.355469 0.75 C 4.234375 0.75 4.878906 0.128906 5.007812 -0.75 C 5.136719 -1.652344 5.316406 -2.632812 5.523438 -3.664062 C 8.878906 -3.640625 11.921875 -3.175781 14.089844 -2.375 L 14.089844 -0.773438 C 14.089844 0.230469 14.761719 0.980469 15.742188 0.980469 Z M 6.347656 -7.046875 C 7.664062 -11.792969 9.601562 -16.234375 11.664062 -16.234375 C 13.472656 -16.234375 13.9375 -11.097656 14.039062 -5.882812 C 12 -6.554688 9.292969 -6.96875 6.347656 -7.046875 Z M 6.347656 -7.046875 "/></g></g></g><g fill="#e45700" fill-opacity="1"><g transform="translate(213.813615, 64.778491)"><g/></g></g><g fill="#e45700" fill-opacity="1"><g transform="translate(226.71735, 64.778491)"><g><path d="M 3.714844 0.953125 C 6.734375 -0.078125 10.375 -0.671875 13.1875 -0.644531 C 14.246094 -0.621094 15.019531 -1.289062 15.097656 -2.324219 L 15.097656 -2.347656 C 15.175781 -3.40625 14.425781 -4.234375 13.34375 -4.257812 C 10.632812 -4.285156 7.382812 -3.820312 4.621094 -2.992188 C 5.625 -8.105469 5.625 -12.851562 5.625 -17.445312 C 5.625 -18.554688 5.007812 -19.332031 4.078125 -19.484375 C 2.992188 -19.667969 2.039062 -18.890625 2.039062 -17.859375 C 2.039062 -12.515625 1.417969 -4.386719 0.824219 -1.394531 C 0.621094 -0.335938 1.082031 0.308594 1.496094 0.671875 C 2.066406 1.160156 3.121094 1.160156 3.714844 0.953125 Z M 3.714844 0.953125 "/></g></g></g><g fill="#e45700" fill-opacity="1"><g transform="translate(242.33087, 64.778491)"><g><path d="M 8.902344 1.136719 C 9.9375 1.136719 10.710938 0.335938 10.710938 -0.722656 C 10.632812 -5.445312 10.402344 -11.070312 9.910156 -15.277344 C 11.589844 -15.382812 13.214844 -15.382812 14.609375 -15.226562 C 15.613281 -15.097656 16.464844 -15.691406 16.648438 -16.648438 C 16.851562 -17.78125 16.183594 -18.710938 15.070312 -18.816406 C 10.96875 -19.226562 5.316406 -18.554688 1.417969 -17.421875 C 0.464844 -17.136719 0.0273438 -16.15625 0.386719 -15.125 C 0.722656 -14.195312 1.652344 -13.730469 2.632812 -14.015625 C 3.742188 -14.324219 4.980469 -14.609375 6.296875 -14.839844 C 6.761719 -11.097656 7.019531 -5.753906 7.097656 -0.695312 C 7.097656 0.359375 7.871094 1.136719 8.902344 1.136719 Z M 8.902344 1.136719 "/></g></g></g><g fill="#e45700" fill-opacity="1"><g transform="translate(259.260574, 64.778491)"><g><path d="M 6.246094 1.523438 C 10.761719 1.523438 18.222656 -6.710938 18.222656 -13.367188 C 18.222656 -17.035156 15.640625 -19.539062 11.949219 -19.539062 C 8.800781 -19.539062 5.882812 -18.816406 1.316406 -16.441406 C 0.335938 -15.949219 0.308594 -14.683594 1.007812 -13.9375 C 1.652344 -13.265625 2.527344 -13.421875 3.328125 -13.808594 C 6.246094 -15.203125 8.464844 -16.183594 11.949219 -16.183594 C 13.78125 -16.183594 14.867188 -15.097656 14.867188 -13.367188 C 14.867188 -8.542969 8.929688 -1.832031 6.246094 -1.832031 C 4.929688 -1.832031 4.671875 -5.109375 5.832031 -11.40625 C 6.039062 -12.441406 5.523438 -13.421875 4.542969 -13.523438 C 3.5625 -13.625 2.734375 -13.136719 2.554688 -12.105469 C 1.03125 -3.949219 1.859375 1.523438 6.246094 1.523438 Z M 6.246094 1.523438 "/></g></g></g><g fill="#e45700" fill-opacity="1"><g transform="translate(277.996802, 64.778491)"><g><path d="M 15.742188 0.980469 C 16.699219 0.980469 17.421875 0.285156 17.421875 -0.671875 C 17.421875 -6.96875 18.222656 -19.589844 11.664062 -19.589844 C 7.742188 -19.589844 4.542969 -13.445312 2.8125 -6.96875 C 1.214844 -6.863281 0.15625 -6.011719 0.257812 -5.03125 C 0.386719 -4.105469 1.109375 -3.535156 2.039062 -3.5625 C 1.882812 -2.734375 1.753906 -1.910156 1.652344 -1.109375 C 1.523438 -0.0507812 2.324219 0.75 3.355469 0.75 C 4.234375 0.75 4.878906 0.128906 5.007812 -0.75 C 5.136719 -1.652344 5.316406 -2.632812 5.523438 -3.664062 C 8.878906 -3.640625 11.921875 -3.175781 14.089844 -2.375 L 14.089844 -0.773438 C 14.089844 0.230469 14.761719 0.980469 15.742188 0.980469 Z M 6.347656 -7.046875 C 7.664062 -11.792969 9.601562 -16.234375 11.664062 -16.234375 C 13.472656 -16.234375 13.9375 -11.097656 14.039062 -5.882812 C 12 -6.554688 9.292969 -6.96875 6.347656 -7.046875 Z M 6.347656 -7.046875 "/></g></g></g><g fill="#e45700" fill-opacity="1"><g transform="translate(296.474944, 64.778491)"><g><path d="M 2.710938 0.929688 C 4.621094 0.929688 5.550781 -0.335938 5.550781 -1.214844 C 5.550781 -2.296875 4.671875 -3.199219 3.40625 -3.199219 C 2.296875 -3.199219 0.929688 -2.21875 0.929688 -0.851562 C 0.929688 -0.15625 1.394531 0.929688 2.710938 0.929688 Z M 2.710938 0.929688 "/></g></g></g></svg>